<svg id="svg" version="1.1" xmlns="http://www.w3.org/2000/svg" xmlns:xlink="http://www.w3.org/1999/xlink" width="400" height="400" viewBox="0, 0, 400,400"><g id="svgg"><path id="path0" d="M94.400 137.600 C 94.400 137.820,93.500 138.000,92.400 138.000 C 91.300 138.000,90.400 138.180,90.400 138.400 C 90.400 138.620,89.770 138.800,89.000 138.800 C 88.230 138.800,87.600 138.980,87.600 139.200 C 87.600 139.420,87.060 139.600,86.400 139.600 C 85.740 139.600,85.200 139.780,85.200 140.000 C 85.200 140.220,84.750 140.400,84.200 140.400 C 83.650 140.400,83.200 140.580,83.200 140.800 C 83.200 141.020,82.761 141.200,82.224 141.200 C 81.687 141.200,81.136 141.380,81.000 141.600 C 80.864 141.820,80.313 142.000,79.776 142.000 C 79.239 142.000,78.800 142.180,78.800 142.400 C 78.800 142.620,78.564 142.800,78.275 142.800 C 77.987 142.800,77.364 143.160,76.892 143.600 C 76.420 144.040,75.801 144.401,75.517 144.401 C 75.233 144.402,74.640 144.941,74.200 145.600 C 73.760 146.259,73.256 146.798,73.081 146.799 C 72.467 146.801,65.200 154.555,65.200 155.207 C 65.200 155.423,65.020 155.600,64.800 155.600 C 64.580 155.600,64.400 155.870,64.400 156.200 C 64.400 156.530,64.220 156.800,64.000 156.800 C 63.780 156.800,63.600 157.070,63.600 157.400 C 63.600 157.730,63.420 158.000,63.200 158.000 C 62.980 158.000,62.800 158.270,62.800 158.600 C 62.800 158.930,62.620 159.200,62.400 159.200 C 62.180 159.200,62.000 159.560,62.000 160.000 C 62.000 160.440,61.820 160.800,61.600 160.800 C 61.380 160.800,61.200 161.160,61.200 161.600 C 61.200 162.040,61.020 162.400,60.800 162.400 C 60.580 162.400,60.400 162.850,60.400 163.400 C 60.400 163.950,60.220 164.400,60.000 164.400 C 59.780 164.400,59.600 164.940,59.600 165.600 C 59.600 166.260,59.420 166.800,59.200 166.800 C 58.980 166.800,58.800 167.329,58.800 167.976 C 58.800 168.623,58.620 169.264,58.400 169.400 C 58.180 169.536,58.000 170.897,58.000 172.424 C 58.000 174.008,57.828 175.200,57.600 175.200 C 57.337 175.200,57.225 183.518,57.273 199.500 C 57.314 212.865,57.449 222.360,57.573 220.600 C 57.738 218.274,57.881 220.131,58.098 227.400 C 58.395 237.358,58.402 237.417,59.747 241.351 C 61.007 245.038,63.548 249.200,64.539 249.200 C 64.734 249.200,64.804 249.541,64.695 249.957 C 64.503 250.693,66.043 252.800,66.773 252.800 C 67.174 252.800,67.597 251.816,67.606 250.867 C 67.618 249.605,68.354 248.898,68.826 249.697 C 69.215 250.358,69.291 250.359,70.290 249.704 C 70.869 249.325,71.732 249.065,72.206 249.127 C 72.681 249.189,73.300 248.961,73.583 248.620 C 73.884 248.258,74.734 248.000,75.625 248.000 C 77.113 248.000,78.082 247.427,77.131 247.110 C 76.865 247.022,76.770 246.655,76.915 246.276 C 77.192 245.555,78.388 245.429,83.800 245.554 C 85.756 245.599,86.829 245.438,87.359 245.022 C 88.576 244.066,87.524 243.211,85.051 243.146 C 82.784 243.085,83.258 242.969,87.328 242.587 C 89.670 242.367,90.203 242.165,91.094 241.165 C 91.825 240.345,92.505 240.000,93.391 240.000 C 94.083 240.000,95.021 239.654,95.475 239.231 C 96.076 238.671,96.421 238.581,96.741 238.901 C 97.061 239.221,97.377 239.164,97.900 238.690 C 98.468 238.177,99.115 238.090,100.964 238.281 C 102.870 238.478,103.273 238.418,103.123 237.962 C 103.021 237.653,102.367 237.344,101.669 237.275 C 99.622 237.072,100.027 236.000,102.151 236.000 C 103.261 236.000,104.095 235.768,104.428 235.366 C 104.827 234.886,105.362 234.793,106.642 234.985 C 107.662 235.138,108.432 235.073,108.588 234.819 C 108.731 234.589,109.557 234.400,110.424 234.400 C 111.573 234.400,112.000 234.234,112.000 233.787 C 112.000 233.451,112.315 233.055,112.700 232.908 C 113.085 232.761,113.749 232.316,114.175 231.920 C 115.020 231.135,116.000 230.963,116.000 231.600 C 116.000 232.659,118.347 231.995,118.473 230.900 C 118.647 229.391,122.142 228.969,122.519 230.412 C 122.836 231.624,124.551 231.347,124.734 230.054 C 124.808 229.532,125.211 229.018,125.634 228.907 C 126.055 228.797,126.400 228.548,126.400 228.353 C 126.400 228.159,126.868 228.000,127.440 228.000 C 128.081 228.000,128.912 227.536,129.610 226.790 C 130.263 226.091,130.847 225.753,130.994 225.990 C 131.402 226.650,134.400 226.505,134.400 225.824 C 134.400 225.447,134.919 225.205,135.900 225.124 C 136.997 225.033,137.505 224.761,137.790 224.110 C 138.163 223.260,138.428 223.216,143.773 223.110 L 149.365 223.000 149.609 222.000 C 149.845 221.030,149.945 221.003,152.926 221.095 C 155.728 221.182,156.000 221.122,156.000 220.419 C 156.000 219.994,156.180 219.536,156.400 219.400 C 156.620 219.264,156.800 219.343,156.800 219.576 C 156.800 219.809,157.340 220.000,158.000 220.000 C 158.800 220.000,159.200 219.800,159.200 219.400 C 159.200 218.233,162.266 218.613,162.569 219.817 C 162.932 221.267,168.515 221.194,168.723 219.737 C 168.821 219.052,168.584 218.816,167.576 218.595 L 166.306 218.316 167.149 217.473 C 167.808 216.814,168.096 216.736,168.476 217.116 C 169.059 217.699,171.852 217.763,172.200 217.200 C 172.338 216.977,174.196 216.800,176.400 216.800 C 178.604 216.800,180.462 216.623,180.600 216.400 C 180.749 216.158,180.204 216.000,179.224 216.000 C 178.121 216.000,177.600 215.825,177.600 215.456 C 177.600 214.673,180.550 214.408,189.276 214.403 C 193.825 214.401,196.850 214.243,197.000 214.000 C 197.136 213.780,198.587 213.600,200.224 213.600 C 201.941 213.600,203.200 213.431,203.200 213.200 C 203.200 212.980,202.829 212.800,202.376 212.800 C 201.916 212.800,201.664 212.619,201.806 212.390 C 201.958 212.144,202.814 212.080,203.947 212.231 C 205.410 212.425,205.954 212.337,206.366 211.841 C 206.743 211.387,207.580 211.200,209.235 211.200 C 211.162 211.200,211.647 211.060,212.000 210.400 C 212.516 209.436,213.077 209.401,214.732 210.226 C 216.306 211.011,218.546 210.849,218.719 209.937 C 218.805 209.481,218.475 209.192,217.663 209.014 C 217.014 208.871,215.765 208.072,214.888 207.238 C 214.012 206.404,212.990 205.605,212.618 205.462 C 211.765 205.135,211.958 204.025,212.969 203.443 C 213.391 203.199,214.171 202.640,214.701 202.200 C 215.231 201.760,215.695 201.489,215.732 201.598 C 215.769 201.708,216.368 201.393,217.062 200.898 C 217.756 200.404,218.421 200.000,218.541 200.000 C 218.661 200.000,219.253 199.542,219.858 198.982 C 220.462 198.422,221.527 197.693,222.224 197.362 C 222.921 197.031,223.831 196.447,224.246 196.063 C 226.367 194.104,230.576 191.439,232.182 191.038 C 232.832 190.876,233.607 190.396,233.905 189.972 C 234.202 189.547,234.795 189.200,235.223 189.200 C 235.650 189.200,236.000 189.016,236.000 188.791 C 236.000 188.567,236.495 188.163,237.100 187.894 C 237.705 187.626,238.549 187.089,238.975 186.703 C 239.402 186.316,239.907 186.000,240.097 186.000 C 240.288 186.000,241.019 185.461,241.722 184.802 C 242.425 184.143,243.154 183.603,243.342 183.602 C 243.531 183.601,244.047 183.139,244.491 182.576 C 245.005 181.922,245.528 181.640,245.936 181.797 C 246.288 181.932,246.447 181.914,246.290 181.757 C 245.977 181.444,247.610 180.145,248.112 180.307 C 248.284 180.363,248.813 180.046,249.288 179.604 C 249.762 179.162,250.387 178.800,250.675 178.800 C 250.964 178.800,251.200 178.620,251.200 178.400 C 251.200 178.180,251.470 178.000,251.800 178.000 C 252.130 178.000,252.400 177.820,252.400 177.600 C 252.400 177.380,252.630 177.200,252.912 177.200 C 253.193 177.200,253.683 176.840,254.000 176.400 C 254.317 175.960,254.897 175.600,255.288 175.600 C 255.680 175.600,256.000 175.420,256.000 175.200 C 256.000 174.980,256.438 174.800,256.973 174.800 C 257.595 174.800,258.038 174.511,258.200 174.000 C 258.340 173.560,258.712 173.200,259.027 173.200 C 259.342 173.200,259.601 173.065,259.603 172.900 C 259.607 172.541,261.544 171.600,262.280 171.600 C 262.566 171.600,262.800 171.420,262.800 171.200 C 262.800 170.980,263.250 170.800,263.800 170.800 C 264.350 170.800,264.800 170.620,264.800 170.400 C 264.800 170.180,265.351 170.000,266.024 170.000 C 266.737 170.000,267.144 169.833,267.000 169.600 C 266.849 169.356,267.463 169.200,268.576 169.200 C 269.579 169.200,270.400 169.020,270.400 168.800 C 270.400 168.580,271.379 168.400,272.576 168.400 C 273.773 168.400,274.864 168.220,275.000 168.000 C 275.136 167.780,276.587 167.600,278.224 167.600 C 279.941 167.600,281.200 167.769,281.200 168.000 C 281.200 168.222,282.259 168.400,283.576 168.400 C 284.883 168.400,286.064 168.580,286.200 168.800 C 286.336 169.020,287.067 169.200,287.824 169.200 C 288.581 169.200,289.200 169.380,289.200 169.600 C 289.200 169.820,289.650 170.000,290.200 170.000 C 290.750 170.000,291.200 170.180,291.200 170.400 C 291.200 170.620,291.560 170.800,292.000 170.800 C 292.440 170.800,292.800 170.980,292.800 171.200 C 292.800 171.420,293.250 171.600,293.800 171.600 C 294.350 171.600,294.800 171.780,294.800 172.000 C 294.800 172.220,295.070 172.400,295.400 172.400 C 295.730 172.400,296.000 172.580,296.000 172.800 C 296.000 173.020,296.360 173.200,296.800 173.200 C 297.240 173.200,297.600 173.380,297.600 173.600 C 297.600 173.820,297.870 174.000,298.200 174.000 C 298.530 174.000,299.160 174.360,299.600 174.800 C 300.040 175.240,300.535 175.558,300.700 175.507 C 301.346 175.307,307.598 181.463,307.599 182.300 C 307.600 182.575,307.780 182.800,308.000 182.800 C 308.220 182.800,308.400 183.166,308.400 183.613 C 308.400 184.061,308.940 184.955,309.600 185.600 C 310.309 186.293,310.800 187.188,310.800 187.787 C 310.800 188.344,310.980 188.800,311.200 188.800 C 311.420 188.800,311.600 189.160,311.600 189.600 C 311.600 190.040,311.780 190.400,312.000 190.400 C 312.220 190.400,312.400 190.648,312.400 190.951 C 312.400 191.254,312.688 191.741,313.039 192.032 C 313.485 192.402,313.614 192.960,313.466 193.873 C 313.327 194.727,313.410 195.151,313.704 195.091 C 314.796 194.870,315.585 210.841,314.693 215.100 C 314.532 215.864,314.581 216.400,314.810 216.400 C 315.024 216.400,315.200 216.059,315.200 215.643 C 315.200 215.226,315.483 214.777,315.830 214.644 C 316.521 214.379,317.600 215.242,317.600 216.060 C 317.600 216.345,317.872 216.190,318.205 215.715 C 318.950 214.650,321.480 214.852,322.349 216.046 C 322.938 216.856,324.196 217.054,324.600 216.400 C 325.060 215.655,327.538 215.938,327.993 216.787 C 328.367 217.486,328.914 217.586,332.907 217.687 C 336.432 217.776,337.375 217.917,337.286 218.341 C 337.124 219.114,337.586 220.400,338.027 220.400 C 338.232 220.400,338.400 219.511,338.400 218.424 C 338.400 217.337,338.580 216.336,338.800 216.200 C 339.033 216.056,339.200 216.455,339.200 217.153 C 339.200 217.813,339.380 218.464,339.600 218.600 C 339.820 218.736,340.000 219.191,340.000 219.611 C 340.000 220.143,340.192 220.301,340.632 220.132 C 341.027 219.981,341.187 219.594,341.058 219.102 C 340.945 218.669,341.042 217.838,341.274 217.257 C 341.723 216.134,341.883 215.282,342.190 212.400 C 342.296 211.410,342.560 209.880,342.777 209.000 C 343.452 206.264,343.521 197.015,342.870 196.408 C 342.471 196.034,342.360 195.171,342.476 193.344 C 342.565 191.945,342.494 190.800,342.319 190.800 C 342.144 190.800,342.000 189.821,342.000 188.624 C 342.000 187.427,341.820 186.336,341.600 186.200 C 341.380 186.064,341.200 185.524,341.200 185.000 C 341.200 184.476,341.020 183.936,340.800 183.800 C 340.580 183.664,340.400 183.023,340.400 182.376 C 340.400 181.729,340.220 181.200,340.000 181.200 C 339.780 181.200,339.600 180.750,339.600 180.200 C 339.600 179.650,339.420 179.200,339.200 179.200 C 338.980 179.200,338.800 178.750,338.800 178.200 C 338.800 177.650,338.620 177.200,338.400 177.200 C 338.180 177.200,338.000 176.630,338.000 175.933 C 338.000 175.237,337.889 174.778,337.752 174.914 C 337.397 175.269,336.400 174.174,336.400 173.429 C 336.400 173.083,336.220 172.800,336.000 172.800 C 335.780 172.800,335.600 172.440,335.600 172.000 C 335.600 171.560,335.416 171.200,335.191 171.200 C 334.967 171.200,334.563 170.705,334.294 170.100 C 334.026 169.495,333.489 168.651,333.103 168.225 C 332.716 167.798,332.400 167.213,332.400 166.925 C 332.400 166.636,332.220 166.400,332.000 166.400 C 331.780 166.400,331.600 166.207,331.600 165.971 C 331.600 165.736,331.328 165.271,330.996 164.939 C 330.664 164.607,330.513 164.125,330.660 163.868 C 330.808 163.610,330.783 163.532,330.605 163.693 C 330.427 163.854,329.935 163.584,329.512 163.093 C 329.089 162.602,328.306 161.707,327.772 161.103 C 327.237 160.500,326.800 159.828,326.800 159.609 C 326.800 159.133,323.228 155.600,322.747 155.600 C 322.321 155.600,321.026 154.576,319.330 152.900 C 318.606 152.185,317.911 151.600,317.785 151.600 C 317.513 151.600,312.689 148.376,312.400 148.001 C 312.218 147.765,310.882 147.119,310.400 147.034 C 310.290 147.015,309.632 146.594,308.938 146.099 C 308.244 145.605,307.479 145.200,307.238 145.200 C 306.997 145.200,306.800 145.020,306.800 144.800 C 306.800 144.580,306.440 144.400,306.000 144.400 C 305.560 144.400,305.200 144.220,305.200 144.000 C 305.200 143.780,304.750 143.600,304.200 143.600 C 303.650 143.600,303.200 143.420,303.200 143.200 C 303.200 142.980,302.840 142.800,302.400 142.800 C 301.960 142.800,301.600 142.620,301.600 142.400 C 301.600 142.180,300.880 142.000,300.000 142.000 C 299.120 142.000,298.400 141.820,298.400 141.600 C 298.400 141.380,297.680 141.200,296.800 141.200 C 295.920 141.200,295.200 141.020,295.200 140.800 C 295.200 140.580,294.480 140.400,293.600 140.400 C 292.720 140.400,292.000 140.220,292.000 140.000 C 292.000 139.780,291.100 139.600,290.000 139.600 C 288.900 139.600,288.000 139.420,288.000 139.200 C 288.000 138.959,286.333 138.800,283.800 138.800 C 281.267 138.800,279.600 138.641,279.600 138.400 C 279.600 138.180,278.790 138.000,277.800 138.000 C 276.810 138.000,276.000 138.180,276.000 138.400 C 276.000 138.640,274.400 138.800,272.000 138.800 C 269.600 138.800,268.000 138.960,268.000 139.200 C 268.000 139.420,267.100 139.600,266.000 139.600 C 264.900 139.600,264.000 139.780,264.000 140.000 C 264.000 140.220,263.190 140.400,262.200 140.400 C 261.210 140.400,260.400 140.580,260.400 140.800 C 260.400 141.020,259.770 141.200,259.000 141.200 C 258.230 141.200,257.600 141.380,257.600 141.600 C 257.600 141.820,256.970 142.000,256.200 142.000 C 255.430 142.000,254.800 142.180,254.800 142.400 C 254.800 142.620,254.350 142.800,253.800 142.800 C 253.250 142.800,252.800 142.980,252.800 143.200 C 252.800 143.420,252.350 143.600,251.800 143.600 C 251.250 143.600,250.800 143.780,250.800 144.000 C 250.800 144.220,250.440 144.400,250.000 144.400 C 249.560 144.400,249.200 144.580,249.200 144.800 C 249.200 145.020,248.840 145.200,248.400 145.200 C 247.960 145.200,247.600 145.380,247.600 145.600 C 247.600 145.820,247.240 146.000,246.800 146.000 C 246.360 146.000,246.000 146.136,246.000 146.302 C 246.000 146.469,245.428 146.858,244.728 147.168 C 243.518 147.703,243.070 148.019,241.066 149.747 C 240.309 150.400,238.447 151.716,236.462 153.000 C 236.122 153.220,235.485 153.715,235.046 154.100 C 234.608 154.485,234.093 154.800,233.901 154.800 C 233.710 154.800,232.889 155.325,232.077 155.966 C 231.264 156.607,229.700 157.546,228.600 158.052 C 227.500 158.558,226.240 159.311,225.800 159.726 C 225.360 160.140,223.976 161.181,222.725 162.038 C 221.473 162.895,220.338 163.777,220.201 163.998 C 220.065 164.219,219.695 164.400,219.381 164.400 C 219.066 164.400,218.432 164.715,217.971 165.100 C 217.510 165.485,216.653 166.205,216.066 166.700 C 215.480 167.194,214.674 167.599,214.276 167.600 C 213.878 167.600,213.664 167.780,213.800 168.000 C 213.936 168.220,213.812 168.400,213.524 168.401 C 213.236 168.401,212.370 168.941,211.600 169.600 C 210.830 170.259,209.990 170.799,209.733 170.799 C 209.477 170.800,209.207 170.946,209.133 171.124 C 208.846 171.823,204.686 174.800,203.997 174.800 C 203.596 174.800,203.207 174.949,203.133 175.130 C 202.946 175.594,196.927 179.600,196.418 179.600 C 196.188 179.600,196.000 179.784,196.000 180.009 C 196.000 180.233,195.505 180.638,194.900 180.909 C 193.695 181.447,193.153 181.859,190.705 184.100 C 189.804 184.925,188.904 185.600,188.705 185.600 C 188.506 185.600,188.073 185.870,187.743 186.200 C 187.044 186.899,186.400 186.983,186.400 186.376 C 186.400 186.143,186.237 186.054,186.037 186.177 C 185.627 186.431,182.400 184.436,182.400 183.929 C 182.400 183.748,182.119 183.600,181.776 183.600 C 181.433 183.600,181.263 183.422,181.397 183.205 C 181.532 182.987,181.407 182.899,181.121 183.009 C 180.834 183.119,180.113 182.756,179.517 182.204 C 178.922 181.652,178.249 181.200,178.021 181.200 C 177.793 181.200,177.382 180.840,177.107 180.400 C 176.832 179.960,176.408 179.600,176.163 179.600 C 175.919 179.600,175.154 179.060,174.463 178.400 C 173.772 177.740,173.060 177.200,172.879 177.200 C 172.699 177.200,172.202 176.878,171.775 176.485 C 171.349 176.092,170.415 175.530,169.700 175.237 C 168.985 174.943,168.400 174.545,168.400 174.351 C 168.400 174.158,168.130 174.000,167.800 174.000 C 167.470 174.000,167.200 173.820,167.200 173.600 C 167.200 173.380,166.850 173.200,166.423 173.200 C 165.995 173.200,165.410 172.882,165.123 172.494 C 164.835 172.105,164.105 171.569,163.500 171.302 C 162.895 171.036,162.400 170.633,162.400 170.409 C 162.400 170.184,162.085 170.000,161.700 170.000 C 161.315 170.000,160.212 169.280,159.249 168.400 C 158.287 167.520,157.342 166.800,157.149 166.800 C 156.957 166.800,156.800 166.620,156.800 166.400 C 156.800 166.180,156.530 166.000,156.200 166.000 C 155.870 166.000,155.600 165.820,155.600 165.600 C 155.600 165.380,155.330 165.200,155.000 165.200 C 154.670 165.200,154.400 165.020,154.400 164.800 C 154.400 164.580,154.194 164.400,153.943 164.400 C 153.692 164.400,152.971 163.860,152.340 163.200 C 151.709 162.540,150.874 162.000,150.485 162.000 C 150.095 162.000,149.517 161.640,149.200 161.200 C 148.883 160.760,148.393 160.400,148.112 160.400 C 147.830 160.400,147.600 160.220,147.600 160.000 C 147.600 159.780,147.330 159.600,147.000 159.600 C 146.670 159.600,146.400 159.420,146.400 159.200 C 146.400 158.980,146.130 158.800,145.800 158.800 C 145.470 158.800,145.200 158.620,145.200 158.400 C 145.200 158.180,144.790 158.000,144.288 158.000 C 143.787 158.000,143.117 157.640,142.800 157.200 C 142.483 156.760,141.993 156.400,141.712 156.400 C 141.430 156.400,141.200 156.220,141.200 156.000 C 141.200 155.780,140.930 155.600,140.600 155.600 C 140.270 155.600,140.000 155.420,140.000 155.200 C 140.000 154.980,139.730 154.800,139.400 154.800 C 139.070 154.800,138.800 154.620,138.800 154.400 C 138.800 154.180,138.570 154.000,138.288 154.000 C 138.007 154.000,137.517 153.640,137.200 153.200 C 136.883 152.760,136.303 152.400,135.912 152.400 C 135.520 152.400,135.200 152.220,135.200 152.000 C 135.200 151.780,134.919 151.600,134.576 151.600 C 134.233 151.600,134.064 151.420,134.200 151.200 C 134.336 150.980,134.077 150.800,133.624 150.800 C 133.171 150.800,132.800 150.620,132.800 150.400 C 132.800 150.180,132.519 150.000,132.176 150.000 C 131.833 150.000,131.664 149.820,131.800 149.600 C 131.936 149.380,131.767 149.200,131.424 149.200 C 131.081 149.200,130.800 149.020,130.800 148.800 C 130.800 148.580,130.519 148.400,130.176 148.400 C 129.833 148.400,129.664 148.220,129.800 148.000 C 129.936 147.780,129.749 147.600,129.385 147.600 C 128.588 147.600,126.594 146.245,125.140 144.715 C 124.556 144.102,123.874 143.600,123.623 143.600 C 123.372 143.600,122.780 143.240,122.308 142.800 C 121.836 142.360,121.033 142.000,120.525 142.000 C 120.016 142.000,119.600 141.820,119.600 141.600 C 119.600 141.380,119.060 141.200,118.400 141.200 C 117.740 141.200,117.200 141.020,117.200 140.800 C 117.200 140.580,116.750 140.400,116.200 140.400 C 115.650 140.400,115.200 140.220,115.200 140.000 C 115.200 139.780,114.660 139.600,114.000 139.600 C 113.340 139.600,112.800 139.420,112.800 139.200 C 112.800 138.980,112.170 138.800,111.400 138.800 C 110.630 138.800,110.000 138.620,110.000 138.400 C 110.000 138.180,109.190 138.000,108.200 138.000 C 107.210 138.000,106.400 137.820,106.400 137.600 C 106.400 137.351,104.133 137.200,100.400 137.200 C 96.667 137.200,94.400 137.351,94.400 137.600 M212.226 211.558 C 211.958 211.991,213.121 212.496,213.643 212.174 C 213.846 212.048,213.909 211.777,213.783 211.572 C 213.490 211.098,212.516 211.089,212.226 211.558 M220.004 211.795 C 219.740 212.113,219.617 212.604,219.731 212.887 C 219.853 213.192,219.950 213.098,219.968 212.653 C 219.993 212.078,220.229 211.951,221.000 212.098 C 222.194 212.326,222.272 212.174,221.242 211.622 C 220.682 211.323,220.359 211.368,220.004 211.795 " stroke="none" fill="#fb3130" fill-rule="evenodd"></path><path id="path1" d="M97.200 136.800 C 97.200 137.034,98.541 137.200,100.424 137.200 C 102.471 137.200,103.557 137.054,103.400 136.800 C 103.264 136.580,101.813 136.400,100.176 136.400 C 98.459 136.400,97.200 136.569,97.200 136.800 M91.600 137.600 C 91.600 137.820,92.230 138.000,93.000 138.000 C 93.770 138.000,94.400 137.820,94.400 137.600 C 94.400 137.380,93.770 137.200,93.000 137.200 C 92.230 137.200,91.600 137.380,91.600 137.600 M106.400 137.600 C 106.400 137.820,107.041 138.000,107.824 138.000 C 108.671 138.000,109.147 137.838,109.000 137.600 C 108.864 137.380,108.223 137.200,107.576 137.200 C 106.929 137.200,106.400 137.380,106.400 137.600 M87.600 138.395 C 87.270 138.586,86.640 138.877,86.200 139.042 C 85.458 139.319,85.472 139.353,86.387 139.510 C 86.930 139.602,87.440 139.481,87.520 139.239 C 87.601 138.998,88.282 138.800,89.033 138.800 C 89.785 138.800,90.400 138.620,90.400 138.400 C 90.400 137.915,88.434 137.911,87.600 138.395 M110.000 138.400 C 110.000 138.620,110.551 138.800,111.224 138.800 C 111.937 138.800,112.344 138.633,112.200 138.400 C 112.064 138.180,111.513 138.000,110.976 138.000 C 110.439 138.000,110.000 138.180,110.000 138.400 M270.600 138.400 C 270.444 138.652,271.396 138.800,273.176 138.800 C 274.792 138.800,276.000 138.629,276.000 138.400 C 276.000 138.175,274.875 138.000,273.424 138.000 C 272.007 138.000,270.736 138.180,270.600 138.400 M279.600 138.400 C 279.600 138.629,280.800 138.800,282.400 138.800 C 284.000 138.800,285.200 138.629,285.200 138.400 C 285.200 138.171,284.000 138.000,282.400 138.000 C 280.800 138.000,279.600 138.171,279.600 138.400 M112.800 139.200 C 112.800 139.420,113.261 139.600,113.824 139.600 C 114.404 139.600,114.740 139.427,114.600 139.200 C 114.464 138.980,114.003 138.800,113.576 138.800 C 113.149 138.800,112.800 138.980,112.800 139.200 M265.200 139.200 C 265.200 139.420,265.830 139.600,266.600 139.600 C 267.370 139.600,268.000 139.420,268.000 139.200 C 268.000 138.980,267.370 138.800,266.600 138.800 C 265.830 138.800,265.200 138.980,265.200 139.200 M288.000 139.200 C 288.000 139.420,288.821 139.600,289.824 139.600 C 290.937 139.600,291.551 139.444,291.400 139.200 C 291.264 138.980,290.443 138.800,289.576 138.800 C 288.709 138.800,288.000 138.980,288.000 139.200 M83.600 140.000 C 83.600 140.220,83.960 140.400,84.400 140.400 C 84.840 140.400,85.200 140.220,85.200 140.000 C 85.200 139.780,84.840 139.600,84.400 139.600 C 83.960 139.600,83.600 139.780,83.600 140.000 M115.200 140.000 C 115.200 140.220,115.650 140.400,116.200 140.400 C 116.750 140.400,117.200 140.580,117.200 140.800 C 117.200 141.020,117.560 141.200,118.000 141.200 C 118.440 141.200,118.800 141.020,118.800 140.800 C 118.800 140.580,118.451 140.400,118.024 140.400 C 117.597 140.400,117.136 140.220,117.000 140.000 C 116.864 139.780,116.403 139.600,115.976 139.600 C 115.549 139.600,115.200 139.780,115.200 140.000 M261.200 140.000 C 261.200 140.220,261.830 140.400,262.600 140.400 C 263.370 140.400,264.000 140.220,264.000 140.000 C 264.000 139.780,263.370 139.600,262.600 139.600 C 261.830 139.600,261.200 139.780,261.200 140.000 M292.000 140.000 C 292.000 140.220,292.630 140.400,293.400 140.400 C 294.170 140.400,294.800 140.220,294.800 140.000 C 294.800 139.780,294.170 139.600,293.400 139.600 C 292.630 139.600,292.000 139.780,292.000 140.000 M82.000 140.800 C 82.000 141.020,82.270 141.200,82.600 141.200 C 82.930 141.200,83.200 141.020,83.200 140.800 C 83.200 140.580,82.930 140.400,82.600 140.400 C 82.270 140.400,82.000 140.580,82.000 140.800 M258.200 140.800 C 258.056 141.033,258.463 141.200,259.176 141.200 C 259.849 141.200,260.400 141.020,260.400 140.800 C 260.400 140.580,259.961 140.400,259.424 140.400 C 258.887 140.400,258.336 140.580,258.200 140.800 M295.200 140.800 C 295.200 141.020,295.841 141.200,296.624 141.200 C 297.471 141.200,297.947 141.038,297.800 140.800 C 297.664 140.580,297.023 140.400,296.376 140.400 C 295.729 140.400,295.200 140.580,295.200 140.800 M79.600 141.600 C 79.600 141.820,79.859 142.000,80.176 142.000 C 80.493 142.000,80.864 141.820,81.000 141.600 C 81.136 141.380,80.877 141.200,80.424 141.200 C 79.971 141.200,79.600 141.380,79.600 141.600 M255.600 141.600 C 255.600 141.820,256.050 142.000,256.600 142.000 C 257.150 142.000,257.600 141.820,257.600 141.600 C 257.600 141.380,257.150 141.200,256.600 141.200 C 256.050 141.200,255.600 141.380,255.600 141.600 M298.400 141.600 C 298.400 141.820,299.030 142.000,299.800 142.000 C 300.570 142.000,301.200 141.820,301.200 141.600 C 301.200 141.380,300.570 141.200,299.800 141.200 C 299.030 141.200,298.400 141.380,298.400 141.600 M253.400 142.400 C 253.264 142.620,253.523 142.800,253.976 142.800 C 254.429 142.800,254.800 142.620,254.800 142.400 C 254.800 142.180,254.541 142.000,254.224 142.000 C 253.907 142.000,253.536 142.180,253.400 142.400 M301.600 142.400 C 301.600 142.620,301.870 142.800,302.200 142.800 C 302.530 142.800,302.800 142.620,302.800 142.400 C 302.800 142.180,302.530 142.000,302.200 142.000 C 301.870 142.000,301.600 142.180,301.600 142.400 M251.600 143.200 C 251.600 143.420,251.870 143.600,252.200 143.600 C 252.530 143.600,252.800 143.420,252.800 143.200 C 252.800 142.980,252.530 142.800,252.200 142.800 C 251.870 142.800,251.600 142.980,251.600 143.200 M303.200 143.200 C 303.200 143.420,303.650 143.600,304.200 143.600 C 304.750 143.600,305.200 143.780,305.200 144.000 C 305.200 144.220,305.560 144.400,306.000 144.400 C 306.440 144.400,306.800 144.580,306.800 144.800 C 306.800 145.020,306.997 145.200,307.238 145.200 C 307.479 145.200,308.244 145.605,308.938 146.099 C 309.632 146.594,310.290 147.015,310.400 147.034 C 310.882 147.119,312.218 147.765,312.400 148.001 C 312.873 148.613,317.681 151.652,317.873 151.460 C 318.180 151.154,316.134 149.200,315.506 149.200 C 315.215 149.200,314.717 148.840,314.400 148.400 C 314.083 147.960,313.586 147.600,313.295 147.600 C 313.004 147.600,312.380 147.240,311.908 146.800 C 311.436 146.360,310.813 146.000,310.525 146.000 C 310.236 146.000,310.000 145.820,310.000 145.600 C 310.000 145.380,309.640 145.200,309.200 145.200 C 308.760 145.200,308.400 145.020,308.400 144.800 C 308.400 144.580,308.040 144.400,307.600 144.400 C 307.160 144.400,306.800 144.220,306.800 144.000 C 306.800 143.780,306.440 143.600,306.000 143.600 C 305.560 143.600,305.200 143.420,305.200 143.200 C 305.200 142.980,304.750 142.800,304.200 142.800 C 303.650 142.800,303.200 142.980,303.200 143.200 M125.200 144.629 C 125.200 145.249,128.733 147.800,129.094 147.440 C 129.373 147.161,128.024 146.032,127.388 146.013 C 127.162 146.006,126.717 145.640,126.400 145.200 C 125.854 144.443,125.200 144.131,125.200 144.629 M247.429 145.009 C 247.005 145.329,246.805 145.729,246.984 145.896 C 247.163 146.063,247.390 145.975,247.488 145.700 C 247.586 145.425,248.012 145.200,248.433 145.200 C 248.855 145.200,249.200 145.020,249.200 144.800 C 249.200 144.226,248.327 144.329,247.429 145.009 M69.430 149.379 C 65.593 153.171,64.632 154.400,65.505 154.400 C 65.673 154.400,66.168 153.918,66.605 153.328 C 67.741 151.796,72.700 146.800,73.084 146.800 C 73.262 146.800,73.632 146.440,73.907 146.000 C 75.013 144.229,73.446 145.412,69.430 149.379 M244.500 146.544 C 243.579 147.000,243.195 147.856,244.100 147.434 C 244.375 147.305,244.915 147.089,245.300 146.954 C 245.685 146.818,246.000 146.548,246.000 146.353 C 246.000 145.922,245.672 145.964,244.500 146.544 M129.795 148.008 C 129.662 148.224,129.833 148.400,130.176 148.400 C 130.519 148.400,130.800 148.580,130.800 148.800 C 130.800 149.020,130.980 149.200,131.200 149.200 C 131.855 149.200,131.656 148.627,130.819 148.104 C 130.327 147.797,129.947 147.761,129.795 148.008 M241.600 148.400 C 241.283 148.840,240.743 149.200,240.400 149.200 C 240.057 149.200,239.517 149.560,239.200 150.000 C 238.883 150.440,238.369 150.800,238.059 150.800 C 237.748 150.800,237.203 151.116,236.847 151.503 C 236.491 151.889,235.705 152.460,235.100 152.770 C 234.495 153.081,234.000 153.485,234.000 153.668 C 234.000 153.850,233.764 154.000,233.475 154.000 C 233.187 154.000,232.602 154.315,232.175 154.700 C 231.749 155.085,230.905 155.655,230.300 155.968 C 229.695 156.280,229.200 156.685,229.200 156.868 C 229.200 157.050,228.840 157.200,228.400 157.200 C 227.960 157.200,227.600 157.380,227.600 157.600 C 227.600 157.820,227.357 158.000,227.059 158.000 C 226.762 158.000,225.954 158.540,225.263 159.200 C 224.572 159.860,223.871 160.400,223.704 160.401 C 223.537 160.401,222.770 160.941,222.000 161.600 C 221.230 162.259,220.452 162.799,220.271 162.799 C 220.091 162.800,219.664 163.079,219.324 163.419 C 218.610 164.132,218.976 164.763,219.768 164.186 C 220.059 163.974,221.356 163.053,222.649 162.140 C 223.942 161.227,225.360 160.140,225.800 159.726 C 226.240 159.311,227.500 158.558,228.600 158.052 C 229.700 157.546,231.264 156.607,232.077 155.966 C 232.889 155.325,233.710 154.800,233.901 154.800 C 234.093 154.800,234.608 154.485,235.046 154.100 C 235.485 153.715,236.122 153.220,236.462 153.000 C 238.650 151.585,240.357 150.356,241.400 149.447 C 242.060 148.872,242.735 148.401,242.900 148.400 C 243.065 148.400,243.200 148.220,243.200 148.000 C 243.200 147.313,242.204 147.562,241.600 148.400 M131.800 149.600 C 131.664 149.820,131.833 150.000,132.176 150.000 C 132.519 150.000,132.800 150.180,132.800 150.400 C 132.800 150.620,133.070 150.800,133.400 150.800 C 134.196 150.800,134.159 150.409,133.300 149.757 C 132.449 149.111,132.123 149.077,131.800 149.600 M134.200 151.200 C 134.064 151.420,134.233 151.600,134.576 151.600 C 134.919 151.600,135.200 151.780,135.200 152.000 C 135.200 152.220,135.470 152.400,135.800 152.400 C 136.552 152.400,136.560 152.103,135.829 151.371 C 135.160 150.703,134.547 150.638,134.200 151.200 M318.400 151.857 C 318.400 152.118,319.939 153.606,321.575 154.929 C 323.245 156.279,322.892 155.271,321.049 153.428 C 319.387 151.766,318.400 151.181,318.400 151.857 M136.800 152.629 C 136.800 153.021,137.922 154.000,138.371 154.000 C 138.607 154.000,138.800 154.180,138.800 154.400 C 138.800 154.620,139.070 154.800,139.400 154.800 C 139.730 154.800,140.000 154.980,140.000 155.200 C 140.000 155.420,140.255 155.600,140.567 155.600 C 140.878 155.600,141.214 155.825,141.312 156.100 C 141.410 156.375,141.634 156.466,141.810 156.302 C 142.154 155.981,140.070 154.001,139.388 154.000 C 139.162 154.000,138.717 153.640,138.400 153.200 C 137.872 152.468,136.800 152.085,136.800 152.629 M64.096 155.595 C 63.495 156.557,63.476 156.800,64.000 156.800 C 64.220 156.800,64.400 156.530,64.400 156.200 C 64.400 155.870,64.580 155.600,64.800 155.600 C 65.020 155.600,65.200 155.420,65.200 155.200 C 65.200 154.541,64.626 154.746,64.096 155.595 M142.400 156.629 C 142.400 157.161,143.606 158.000,144.371 158.000 C 144.827 158.000,145.200 158.180,145.200 158.400 C 145.200 158.620,145.380 158.800,145.600 158.800 C 146.479 158.800,145.913 158.102,144.362 157.274 C 142.614 156.341,142.400 156.271,142.400 156.629 M62.500 157.798 C 61.899 158.481,61.848 159.200,62.400 159.200 C 62.620 159.200,62.800 158.930,62.800 158.600 C 62.800 158.270,62.980 158.000,63.200 158.000 C 63.420 158.000,63.600 157.820,63.600 157.600 C 63.600 157.037,63.089 157.129,62.500 157.798 M146.400 159.200 C 146.400 159.420,146.655 159.600,146.967 159.600 C 147.278 159.600,147.614 159.825,147.712 160.100 C 147.810 160.375,148.027 160.474,148.193 160.319 C 148.541 159.995,147.468 158.800,146.829 158.800 C 146.593 158.800,146.400 158.980,146.400 159.200 M61.200 160.200 C 61.200 160.530,61.380 160.800,61.600 160.800 C 61.820 160.800,62.000 160.530,62.000 160.200 C 62.000 159.870,61.820 159.600,61.600 159.600 C 61.380 159.600,61.200 159.870,61.200 160.200 M326.800 159.829 C 326.800 159.954,327.034 160.292,327.321 160.578 C 327.607 160.865,328.462 161.863,329.221 162.796 C 329.979 163.730,330.825 164.730,331.100 165.018 C 331.375 165.307,331.600 165.736,331.600 165.971 C 331.600 166.207,331.780 166.400,332.000 166.400 C 332.745 166.400,332.405 165.394,331.408 164.645 C 330.862 164.235,330.497 163.766,330.598 163.603 C 330.699 163.440,329.993 162.473,329.030 161.454 C 327.388 159.715,326.800 159.287,326.800 159.829 M148.800 160.629 C 148.800 161.021,149.922 162.000,150.371 162.000 C 151.007 162.000,150.892 161.558,150.100 160.957 C 149.356 160.392,148.800 160.252,148.800 160.629 M60.400 161.800 C 60.400 162.130,60.580 162.400,60.800 162.400 C 61.020 162.400,61.200 162.130,61.200 161.800 C 61.200 161.470,61.020 161.200,60.800 161.200 C 60.580 161.200,60.400 161.470,60.400 161.800 M151.600 162.279 C 151.600 162.780,153.616 164.518,153.885 164.249 C 154.096 164.037,153.597 163.472,152.298 162.451 C 151.914 162.149,151.600 162.072,151.600 162.279 M59.600 163.600 C 59.600 164.040,59.780 164.400,60.000 164.400 C 60.220 164.400,60.400 164.040,60.400 163.600 C 60.400 163.160,60.220 162.800,60.000 162.800 C 59.780 162.800,59.600 163.160,59.600 163.600 M154.400 164.800 C 154.400 165.020,154.670 165.200,155.000 165.200 C 155.330 165.200,155.600 165.380,155.600 165.600 C 155.600 165.820,155.782 166.000,156.003 166.000 C 156.243 166.000,156.203 165.674,155.907 165.200 C 155.387 164.367,154.400 164.105,154.400 164.800 M216.800 165.200 C 216.483 165.640,215.980 166.000,215.683 166.000 C 215.146 166.000,214.000 166.934,214.000 167.371 C 214.000 167.947,215.124 167.492,216.400 166.400 C 217.170 165.741,217.935 165.201,218.100 165.201 C 218.265 165.200,218.400 165.020,218.400 164.800 C 218.400 164.113,217.404 164.362,216.800 165.200 M58.800 166.000 C 58.800 166.440,58.980 166.800,59.200 166.800 C 59.420 166.800,59.600 166.440,59.600 166.000 C 59.600 165.560,59.420 165.200,59.200 165.200 C 58.980 165.200,58.800 165.560,58.800 166.000 M156.800 166.400 C 156.800 166.620,156.957 166.800,157.149 166.800 C 157.342 166.800,158.287 167.520,159.249 168.400 C 160.831 169.846,162.000 170.418,162.000 169.747 C 162.000 169.362,159.857 167.601,159.388 167.600 C 159.162 167.600,158.717 167.240,158.400 166.800 C 157.796 165.962,156.800 165.713,156.800 166.400 M332.400 167.125 C 332.400 167.303,332.716 167.798,333.103 168.225 C 333.489 168.651,334.026 169.495,334.294 170.100 C 334.820 171.283,335.600 171.581,335.600 170.600 C 335.600 170.270,335.450 170.000,335.268 170.000 C 335.085 170.000,334.680 169.505,334.368 168.900 C 333.501 167.220,332.400 166.227,332.400 167.125 M58.000 168.624 C 58.000 169.204,58.173 169.540,58.400 169.400 C 58.620 169.264,58.800 168.803,58.800 168.376 C 58.800 167.949,58.620 167.600,58.400 167.600 C 58.180 167.600,58.000 168.061,58.000 168.624 M212.000 168.400 C 211.683 168.840,211.143 169.200,210.800 169.200 C 210.457 169.200,209.917 169.560,209.600 170.000 C 209.283 170.440,208.775 170.800,208.472 170.800 C 208.169 170.800,207.417 171.340,206.800 172.000 C 206.183 172.660,205.474 173.200,205.223 173.200 C 204.972 173.200,204.380 173.560,203.908 174.000 C 203.436 174.440,202.813 174.800,202.525 174.800 C 202.236 174.800,202.000 174.980,202.000 175.200 C 202.000 175.420,201.764 175.600,201.475 175.600 C 201.187 175.600,200.602 175.915,200.175 176.300 C 199.749 176.685,198.905 177.255,198.300 177.568 C 197.695 177.880,197.200 178.285,197.200 178.468 C 197.200 178.650,196.975 178.800,196.700 178.800 C 196.049 178.801,193.801 180.734,194.101 181.034 C 194.413 181.346,196.000 180.470,196.000 179.986 C 196.000 179.774,196.188 179.600,196.418 179.600 C 196.927 179.600,202.946 175.594,203.133 175.130 C 203.207 174.949,203.596 174.800,203.997 174.800 C 204.686 174.800,208.846 171.823,209.133 171.124 C 209.207 170.946,209.477 170.800,209.733 170.799 C 209.990 170.799,210.830 170.259,211.600 169.600 C 212.370 168.941,213.236 168.401,213.524 168.401 C 213.812 168.400,213.936 168.220,213.800 168.000 C 213.405 167.361,212.624 167.535,212.000 168.400 M275.000 168.000 C 274.843 168.254,275.929 168.400,277.976 168.400 C 279.859 168.400,281.200 168.234,281.200 168.000 C 281.200 167.769,279.941 167.600,278.224 167.600 C 276.587 167.600,275.136 167.780,275.000 168.000 M270.400 168.800 C 270.400 169.020,270.839 169.200,271.376 169.200 C 271.913 169.200,272.464 169.020,272.600 168.800 C 272.744 168.567,272.337 168.400,271.624 168.400 C 270.951 168.400,270.400 168.580,270.400 168.800 M283.800 168.800 C 283.936 169.020,284.587 169.200,285.247 169.200 C 285.945 169.200,286.344 169.033,286.200 168.800 C 286.064 168.580,285.413 168.400,284.753 168.400 C 284.055 168.400,283.656 168.567,283.800 168.800 M267.000 169.600 C 267.136 169.820,267.586 170.000,268.000 170.000 C 268.414 170.000,268.864 169.820,269.000 169.600 C 269.145 169.366,268.730 169.200,268.000 169.200 C 267.270 169.200,266.855 169.366,267.000 169.600 M287.400 169.600 C 287.536 169.820,287.997 170.000,288.424 170.000 C 288.851 170.000,289.200 169.820,289.200 169.600 C 289.200 169.380,288.739 169.200,288.176 169.200 C 287.596 169.200,287.260 169.373,287.400 169.600 M162.400 170.386 C 162.400 170.855,163.983 171.751,164.282 171.451 C 164.560 171.174,163.385 170.000,162.829 170.000 C 162.593 170.000,162.400 170.174,162.400 170.386 M264.800 170.400 C 264.800 170.620,265.149 170.800,265.576 170.800 C 266.003 170.800,266.464 170.620,266.600 170.400 C 266.740 170.173,266.404 170.000,265.824 170.000 C 265.261 170.000,264.800 170.180,264.800 170.400 M290.000 170.400 C 290.000 170.620,290.270 170.800,290.600 170.800 C 290.930 170.800,291.200 170.620,291.200 170.400 C 291.200 170.180,290.930 170.000,290.600 170.000 C 290.270 170.000,290.000 170.180,290.000 170.400 M57.467 171.067 C 57.040 171.494,57.159 175.200,57.600 175.200 C 57.820 175.200,58.000 174.210,58.000 173.000 C 58.000 170.775,57.948 170.586,57.467 171.067 M262.800 171.200 C 262.800 171.420,263.160 171.600,263.600 171.600 C 264.040 171.600,264.400 171.420,264.400 171.200 C 264.400 170.980,264.040 170.800,263.600 170.800 C 263.160 170.800,262.800 170.980,262.800 171.200 M291.600 171.200 C 291.600 171.420,291.870 171.600,292.200 171.600 C 292.530 171.600,292.800 171.420,292.800 171.200 C 292.800 170.980,292.530 170.800,292.200 170.800 C 291.870 170.800,291.600 170.980,291.600 171.200 M164.890 172.071 C 165.107 172.720,166.302 173.431,166.628 173.105 C 166.955 172.778,165.834 171.600,165.195 171.600 C 164.941 171.600,164.804 171.812,164.890 172.071 M260.500 172.144 C 260.005 172.389,259.600 172.727,259.600 172.895 C 259.600 173.063,259.349 173.200,259.043 173.200 C 258.736 173.200,258.390 173.450,258.273 173.755 C 258.123 174.144,258.290 174.249,258.830 174.108 C 259.253 173.997,259.600 173.792,259.600 173.651 C 259.600 173.510,260.140 173.156,260.800 172.864 C 261.460 172.572,262.000 172.168,262.000 171.966 C 262.000 171.522,261.679 171.560,260.500 172.144 M293.200 171.771 C 293.200 171.931,295.562 173.200,295.861 173.200 C 295.938 173.200,296.000 173.020,296.000 172.800 C 296.000 172.580,295.730 172.400,295.400 172.400 C 295.070 172.400,294.800 172.220,294.800 172.000 C 294.800 171.780,294.440 171.600,294.000 171.600 C 293.560 171.600,293.200 171.677,293.200 171.771 M335.600 172.200 C 335.600 172.530,335.780 172.800,336.000 172.800 C 336.220 172.800,336.400 172.530,336.400 172.200 C 336.400 171.870,336.220 171.600,336.000 171.600 C 335.780 171.600,335.600 171.870,335.600 172.200 M167.200 173.600 C 167.200 173.820,167.470 174.000,167.800 174.000 C 168.130 174.000,168.400 174.151,168.400 174.336 C 168.400 174.743,170.424 175.710,170.699 175.434 C 171.016 175.117,169.714 174.000,169.029 174.000 C 168.683 174.000,168.400 173.820,168.400 173.600 C 168.400 173.380,168.130 173.200,167.800 173.200 C 167.470 173.200,167.200 173.380,167.200 173.600 M296.400 173.600 C 296.400 173.820,296.670 174.000,297.000 174.000 C 297.330 174.000,297.600 173.820,297.600 173.600 C 297.600 173.380,297.330 173.200,297.000 173.200 C 296.670 173.200,296.400 173.380,296.400 173.600 M336.400 173.629 C 336.400 174.196,337.443 175.224,337.729 174.938 C 337.999 174.668,337.133 173.200,336.704 173.200 C 336.537 173.200,336.400 173.393,336.400 173.629 M298.000 174.229 C 298.000 174.621,299.122 175.600,299.571 175.600 C 300.274 175.600,300.058 174.859,299.226 174.414 C 298.354 173.947,298.000 173.894,298.000 174.229 M256.000 175.200 C 256.000 175.420,256.270 175.600,256.600 175.600 C 256.930 175.600,257.200 175.420,257.200 175.200 C 257.200 174.980,256.930 174.800,256.600 174.800 C 256.270 174.800,256.000 174.980,256.000 175.200 M300.633 175.547 C 300.507 175.751,302.023 177.546,304.002 179.537 C 305.981 181.527,307.600 183.436,307.600 183.778 C 307.600 184.120,307.780 184.400,308.000 184.400 C 308.220 184.400,308.400 184.040,308.400 183.600 C 308.400 183.160,308.220 182.800,308.000 182.800 C 307.780 182.800,307.600 182.575,307.599 182.300 C 307.599 182.025,306.530 180.720,305.225 179.400 C 301.649 175.783,300.884 175.141,300.633 175.547 M171.200 175.904 C 171.200 176.320,172.827 177.306,173.087 177.047 C 173.361 176.772,172.180 175.600,171.629 175.600 C 171.393 175.600,171.200 175.737,171.200 175.904 M254.060 176.242 C 253.762 176.578,253.610 176.943,253.721 177.054 C 253.975 177.308,255.600 176.313,255.600 175.904 C 255.600 175.386,254.628 175.599,254.060 176.242 M338.000 176.400 C 338.000 176.840,338.180 177.200,338.400 177.200 C 338.620 177.200,338.800 176.840,338.800 176.400 C 338.800 175.960,338.620 175.600,338.400 175.600 C 338.180 175.600,338.000 175.960,338.000 176.400 M173.600 177.453 C 173.600 177.786,175.712 179.599,176.100 179.600 C 176.624 179.600,176.428 179.191,175.418 178.182 C 174.489 177.253,173.600 176.897,173.600 177.453 M252.400 177.600 C 252.400 177.820,252.130 178.000,251.800 178.000 C 251.470 178.000,251.200 178.180,251.200 178.400 C 251.200 178.939,251.656 178.884,252.500 178.243 C 253.279 177.652,253.409 177.200,252.800 177.200 C 252.580 177.200,252.400 177.380,252.400 177.600 M338.800 178.376 C 338.800 178.829,338.980 179.200,339.200 179.200 C 339.420 179.200,339.600 178.941,339.600 178.624 C 339.600 178.307,339.420 177.936,339.200 177.800 C 338.980 177.664,338.800 177.923,338.800 178.376 M249.500 179.357 C 248.677 179.982,248.598 180.400,249.304 180.400 C 249.581 180.400,250.032 180.040,250.307 179.600 C 250.878 178.686,250.524 178.579,249.500 179.357 M176.890 180.071 C 176.977 180.331,177.387 180.736,177.803 180.971 C 178.218 181.207,179.017 181.811,179.579 182.312 C 180.140 182.814,181.005 183.329,181.500 183.456 C 181.995 183.583,182.400 183.829,182.400 184.004 C 182.400 184.266,184.600 185.815,185.700 186.327 C 186.593 186.743,185.824 185.245,184.900 184.768 C 184.295 184.455,183.446 183.881,183.014 183.490 C 182.582 183.100,181.997 182.869,181.714 182.978 C 181.431 183.086,181.200 182.941,181.200 182.655 C 181.200 182.369,180.705 181.881,180.100 181.570 C 179.495 181.260,178.709 180.689,178.353 180.303 C 177.622 179.509,176.652 179.355,176.890 180.071 M339.600 180.400 C 339.600 180.840,339.780 181.200,340.000 181.200 C 340.220 181.200,340.400 180.840,340.400 180.400 C 340.400 179.960,340.220 179.600,340.000 179.600 C 339.780 179.600,339.600 179.960,339.600 180.400 M246.029 181.360 C 244.244 182.636,243.542 183.600,244.395 183.600 C 244.970 183.600,246.000 182.600,246.000 182.041 C 246.000 181.812,246.265 181.727,246.590 181.851 C 247.304 182.125,248.658 180.887,248.154 180.421 C 247.959 180.240,247.003 180.663,246.029 181.360 M192.000 182.000 C 191.683 182.440,191.143 182.800,190.800 182.800 C 190.457 182.800,189.917 183.160,189.600 183.600 C 189.283 184.040,188.827 184.400,188.587 184.400 C 188.034 184.400,186.400 185.905,186.400 186.416 C 186.400 186.987,187.062 186.881,187.743 186.200 C 188.073 185.870,188.505 185.600,188.702 185.600 C 188.900 185.600,189.944 184.790,191.022 183.800 C 192.100 182.810,193.121 182.000,193.291 182.000 C 193.461 182.000,193.600 181.820,193.600 181.600 C 193.600 180.913,192.604 181.162,192.000 182.000 M340.400 182.776 C 340.400 183.203,340.580 183.664,340.800 183.800 C 341.027 183.940,341.200 183.604,341.200 183.024 C 341.200 182.461,341.020 182.000,340.800 182.000 C 340.580 182.000,340.400 182.349,340.400 182.776 M241.900 184.593 C 240.792 185.568,240.546 186.000,241.100 186.000 C 241.488 185.999,243.600 184.186,243.600 183.853 C 243.600 183.368,242.992 183.632,241.900 184.593 M341.200 185.176 C 341.200 185.603,341.380 186.064,341.600 186.200 C 341.827 186.340,342.000 186.004,342.000 185.424 C 342.000 184.861,341.820 184.400,341.600 184.400 C 341.380 184.400,341.200 184.749,341.200 185.176 M308.400 185.125 C 308.400 185.303,308.760 185.836,309.200 186.308 C 309.640 186.780,310.000 187.444,310.000 187.783 C 310.000 188.122,310.180 188.400,310.400 188.400 C 311.137 188.400,310.810 186.852,309.854 185.821 C 308.889 184.779,308.400 184.545,308.400 185.125 M239.029 186.609 C 238.605 186.929,238.363 187.296,238.490 187.424 C 238.766 187.699,240.400 186.741,240.400 186.304 C 240.400 185.845,239.888 185.959,239.029 186.609 M342.000 188.776 C 342.000 189.889,342.154 190.800,342.341 190.800 C 342.529 190.800,342.597 191.690,342.492 192.778 C 342.282 194.974,342.606 196.800,343.208 196.800 C 343.726 196.800,343.719 191.320,343.200 191.000 C 342.980 190.864,342.800 189.964,342.800 189.000 C 342.800 188.036,342.620 187.136,342.400 187.000 C 342.153 186.848,342.000 187.529,342.000 188.776 M236.700 188.032 C 235.926 188.483,235.759 189.200,236.429 189.200 C 236.664 189.200,237.114 188.943,237.429 188.629 C 238.442 187.615,238.015 187.266,236.700 188.032 M310.800 189.400 C 310.800 189.730,310.980 190.000,311.200 190.000 C 311.420 190.000,311.600 189.730,311.600 189.400 C 311.600 189.070,311.420 188.800,311.200 188.800 C 310.980 188.800,310.800 189.070,310.800 189.400 M234.080 189.680 C 233.485 190.275,233.461 190.800,234.029 190.800 C 234.478 190.800,235.600 189.821,235.600 189.429 C 235.600 189.018,234.572 189.188,234.080 189.680 M311.600 191.176 C 311.600 191.603,311.780 192.064,312.000 192.200 C 312.220 192.336,312.400 192.992,312.400 193.657 C 312.400 194.446,312.574 194.810,312.900 194.702 C 313.647 194.457,313.730 192.606,313.020 192.017 C 312.679 191.734,312.400 191.254,312.400 190.951 C 312.400 190.648,312.220 190.400,312.000 190.400 C 311.780 190.400,311.600 190.749,311.600 191.176 M231.842 191.087 C 230.624 191.399,226.054 194.393,224.246 196.063 C 223.831 196.447,222.921 197.031,222.224 197.362 C 221.527 197.693,220.462 198.422,219.858 198.982 C 219.253 199.542,218.661 200.000,218.541 200.000 C 218.421 200.000,217.846 200.340,217.262 200.756 C 216.678 201.172,216.049 201.513,215.864 201.515 C 215.680 201.517,215.126 201.851,214.633 202.259 C 214.140 202.667,213.391 203.199,212.969 203.443 C 211.958 204.025,211.765 205.135,212.618 205.462 C 212.990 205.605,214.012 206.404,214.888 207.238 C 215.765 208.072,217.014 208.871,217.663 209.014 C 218.475 209.192,218.805 209.481,218.719 209.937 C 218.546 210.849,216.306 211.011,214.732 210.226 C 213.077 209.401,212.516 209.436,212.000 210.400 C 211.647 211.060,211.162 211.200,209.235 211.200 C 207.580 211.200,206.743 211.387,206.366 211.841 C 205.954 212.337,205.410 212.425,203.947 212.231 C 202.814 212.080,201.958 212.144,201.806 212.390 C 201.664 212.619,201.916 212.800,202.376 212.800 C 202.829 212.800,203.200 212.980,203.200 213.200 C 203.200 213.431,201.941 213.600,200.224 213.600 C 198.587 213.600,197.136 213.780,197.000 214.000 C 196.850 214.243,193.825 214.401,189.276 214.403 C 180.550 214.408,177.600 214.673,177.600 215.456 C 177.600 215.825,178.121 216.000,179.224 216.000 C 180.204 216.000,180.749 216.158,180.600 216.400 C 180.462 216.623,178.604 216.800,176.400 216.800 C 174.196 216.800,172.338 216.977,172.200 217.200 C 171.852 217.763,169.059 217.699,168.476 217.116 C 168.096 216.736,167.808 216.814,167.149 217.473 L 166.306 218.316 167.576 218.595 C 168.584 218.816,168.821 219.052,168.723 219.737 C 168.515 221.194,162.932 221.267,162.569 219.817 C 162.266 218.613,159.200 218.233,159.200 219.400 C 159.200 219.800,158.800 220.000,158.000 220.000 C 157.340 220.000,156.800 219.809,156.800 219.576 C 156.800 219.343,156.620 219.264,156.400 219.400 C 156.180 219.536,156.000 219.994,156.000 220.419 C 156.000 221.122,155.728 221.182,152.926 221.095 C 149.945 221.003,149.845 221.030,149.609 222.000 L 149.365 223.000 143.773 223.110 C 138.428 223.216,138.163 223.260,137.790 224.110 C 137.505 224.761,136.997 225.033,135.900 225.124 C 134.919 225.205,134.400 225.447,134.400 225.824 C 134.400 226.505,131.402 226.650,130.994 225.990 C 130.847 225.753,130.263 226.091,129.610 226.790 C 128.912 227.536,128.081 228.000,127.440 228.000 C 126.868 228.000,126.400 228.159,126.400 228.353 C 126.400 228.548,126.055 228.797,125.634 228.907 C 125.211 229.018,124.808 229.532,124.734 230.054 C 124.551 231.347,122.836 231.624,122.519 230.412 C 122.142 228.969,118.647 229.391,118.473 230.900 C 118.347 231.995,116.000 232.659,116.000 231.600 C 116.000 230.963,115.020 231.135,114.175 231.920 C 113.749 232.316,113.085 232.761,112.700 232.908 C 112.315 233.055,112.000 233.451,112.000 233.787 C 112.000 234.234,111.573 234.400,110.424 234.400 C 109.557 234.400,108.731 234.589,108.588 234.819 C 108.432 235.073,107.662 235.138,106.642 234.985 C 105.362 234.793,104.827 234.886,104.428 235.366 C 104.095 235.768,103.261 236.000,102.151 236.000 C 100.027 236.000,99.622 237.072,101.669 237.275 C 102.367 237.344,103.021 237.653,103.123 237.962 C 103.273 238.418,102.870 238.478,100.964 238.281 C 99.115 238.090,98.468 238.177,97.900 238.690 C 97.377 239.164,97.061 239.221,96.741 238.901 C 96.421 238.581,96.076 238.671,95.475 239.231 C 95.021 239.654,94.083 240.000,93.391 240.000 C 92.505 240.000,91.825 240.345,91.094 241.165 C 90.203 242.165,89.670 242.367,87.328 242.587 C 83.258 242.969,82.784 243.085,85.051 243.146 C 87.524 243.211,88.576 244.066,87.359 245.022 C 86.829 245.438,85.756 245.599,83.800 245.554 C 78.388 245.429,77.192 245.555,76.915 246.276 C 76.770 246.655,76.865 247.022,77.131 247.110 C 78.082 247.427,77.113 248.000,75.625 248.000 C 74.734 248.000,73.884 248.258,73.583 248.620 C 73.300 248.961,72.681 249.189,72.206 249.127 C 71.732 249.065,70.869 249.325,70.290 249.704 C 69.291 250.359,69.215 250.358,68.826 249.697 C 68.354 248.898,67.618 249.605,67.606 250.867 C 67.597 251.816,67.174 252.800,66.773 252.800 C 66.043 252.800,64.503 250.693,64.695 249.957 C 64.804 249.541,64.734 249.200,64.539 249.200 C 63.548 249.200,61.007 245.038,59.747 241.351 C 58.401 237.415,58.395 237.363,58.102 227.400 C 57.858 219.114,57.763 218.017,57.546 221.000 C 57.121 226.851,57.155 237.525,57.600 237.800 C 57.820 237.936,58.000 238.757,58.000 239.624 C 58.000 240.491,58.180 241.200,58.400 241.200 C 58.620 241.200,58.800 241.740,58.800 242.400 C 58.800 243.060,58.980 243.600,59.200 243.600 C 59.420 243.600,59.600 244.140,59.600 244.800 C 59.600 245.460,59.780 246.000,60.000 246.000 C 60.220 246.000,60.400 246.360,60.400 246.800 C 60.400 247.240,60.580 247.600,60.800 247.600 C 61.020 247.600,61.200 247.960,61.200 248.400 C 61.200 248.840,61.380 249.200,61.600 249.200 C 61.820 249.200,62.000 249.520,62.000 249.912 C 62.000 250.303,62.360 250.883,62.800 251.200 C 63.240 251.517,63.600 252.057,63.600 252.400 C 63.600 252.743,63.960 253.283,64.400 253.600 C 64.840 253.917,65.200 254.400,65.200 254.673 C 65.200 255.276,72.657 262.800,73.255 262.800 C 73.488 262.800,74.156 263.295,74.740 263.900 C 75.323 264.505,76.295 265.255,76.900 265.568 C 77.505 265.880,78.000 266.285,78.000 266.468 C 78.000 266.650,78.360 266.800,78.800 266.800 C 79.240 266.800,79.600 266.980,79.600 267.200 C 79.600 267.420,79.960 267.600,80.400 267.600 C 80.840 267.600,81.200 267.780,81.200 268.000 C 81.200 268.220,81.560 268.400,82.000 268.400 C 82.440 268.400,82.800 268.580,82.800 268.800 C 82.800 269.020,83.239 269.200,83.776 269.200 C 84.313 269.200,84.864 269.380,85.000 269.600 C 85.136 269.820,85.676 270.000,86.200 270.000 C 86.724 270.000,87.264 270.180,87.400 270.400 C 87.536 270.620,88.256 270.800,89.000 270.800 C 89.744 270.800,90.464 270.980,90.600 271.200 C 90.736 271.420,91.546 271.600,92.400 271.600 C 93.254 271.600,94.064 271.780,94.200 272.000 C 94.346 272.237,96.796 272.400,100.200 272.400 C 103.604 272.400,106.054 272.237,106.200 272.000 C 106.336 271.780,107.247 271.600,108.224 271.600 C 109.201 271.600,110.000 271.420,110.000 271.200 C 110.000 270.980,110.709 270.800,111.576 270.800 C 112.443 270.800,113.264 270.620,113.400 270.400 C 113.536 270.180,114.087 270.000,114.624 270.000 C 115.161 270.000,115.600 269.820,115.600 269.600 C 115.600 269.380,115.960 269.200,116.400 269.200 C 116.840 269.200,117.200 269.020,117.200 268.800 C 117.200 268.580,117.560 268.400,118.000 268.400 C 118.440 268.400,118.800 268.220,118.800 268.000 C 118.800 267.780,119.160 267.600,119.600 267.600 C 120.040 267.600,120.400 267.420,120.400 267.200 C 120.400 266.980,120.760 266.800,121.200 266.800 C 121.640 266.800,122.000 266.620,122.000 266.400 C 122.000 266.180,122.236 266.000,122.525 266.000 C 122.813 266.000,123.436 265.640,123.908 265.200 C 124.380 264.760,124.978 264.400,125.236 264.400 C 125.495 264.400,125.997 264.084,126.353 263.697 C 126.709 263.311,127.495 262.740,128.100 262.430 C 128.705 262.119,129.200 261.715,129.200 261.532 C 129.200 261.350,129.436 261.200,129.725 261.200 C 130.013 261.200,130.598 260.885,131.025 260.500 C 131.451 260.115,132.295 259.545,132.900 259.232 C 133.505 258.920,134.000 258.515,134.000 258.332 C 134.000 258.150,134.320 258.000,134.712 258.000 C 135.103 258.000,135.683 257.640,136.000 257.200 C 136.317 256.760,136.857 256.400,137.200 256.400 C 137.543 256.400,138.083 256.040,138.400 255.600 C 138.717 255.160,139.231 254.800,139.541 254.800 C 139.852 254.800,140.397 254.484,140.753 254.097 C 141.109 253.711,141.895 253.140,142.500 252.830 C 143.105 252.519,143.600 252.115,143.600 251.932 C 143.600 251.750,143.843 251.600,144.141 251.600 C 144.438 251.600,145.246 251.060,145.937 250.400 C 146.628 249.740,147.425 249.200,147.708 249.200 C 147.991 249.200,148.483 248.840,148.800 248.400 C 149.117 247.960,149.657 247.600,150.000 247.600 C 150.343 247.600,150.883 247.240,151.200 246.800 C 151.517 246.360,151.973 246.000,152.213 246.000 C 152.453 246.000,152.998 245.685,153.425 245.300 C 153.851 244.915,154.695 244.345,155.300 244.032 C 155.905 243.720,156.400 243.315,156.400 243.132 C 156.400 242.950,156.720 242.800,157.112 242.800 C 157.503 242.800,158.083 242.440,158.400 242.000 C 158.717 241.560,159.231 241.200,159.541 241.200 C 159.852 241.200,160.397 240.884,160.753 240.497 C 161.109 240.111,161.895 239.540,162.500 239.230 C 163.105 238.919,163.600 238.515,163.600 238.332 C 163.600 238.150,163.836 238.000,164.125 238.000 C 164.413 238.000,164.998 237.685,165.425 237.300 C 165.851 236.915,166.695 236.345,167.300 236.032 C 167.905 235.720,168.400 235.315,168.400 235.132 C 168.400 234.950,168.694 234.800,169.053 234.800 C 169.412 234.800,169.997 234.484,170.353 234.097 C 170.709 233.711,171.495 233.140,172.100 232.830 C 172.705 232.519,173.200 232.115,173.200 231.932 C 173.200 231.750,173.443 231.600,173.741 231.600 C 174.038 231.600,174.846 231.060,175.537 230.400 C 176.228 229.740,176.940 229.200,177.121 229.200 C 177.301 229.200,177.798 228.885,178.225 228.500 C 178.651 228.115,179.495 227.545,180.100 227.232 C 180.705 226.920,181.200 226.515,181.200 226.332 C 181.200 226.150,181.560 226.000,182.000 226.000 C 182.440 226.000,182.800 225.820,182.800 225.600 C 182.800 225.380,183.036 225.200,183.325 225.200 C 183.613 225.200,184.236 224.840,184.708 224.400 C 185.180 223.960,185.942 223.600,186.400 223.600 C 186.858 223.600,187.620 223.960,188.092 224.400 C 188.564 224.840,189.187 225.200,189.475 225.200 C 189.764 225.200,190.000 225.380,190.000 225.600 C 190.000 225.820,190.236 226.000,190.525 226.000 C 190.813 226.000,191.436 226.360,191.908 226.800 C 192.380 227.240,193.004 227.600,193.295 227.600 C 193.586 227.600,194.083 227.960,194.400 228.400 C 194.717 228.840,195.209 229.200,195.492 229.200 C 195.775 229.200,196.572 229.740,197.263 230.400 C 197.954 231.060,198.762 231.600,199.059 231.600 C 199.357 231.600,199.600 231.750,199.600 231.932 C 199.600 232.115,200.095 232.520,200.700 232.832 C 201.305 233.145,202.149 233.715,202.575 234.100 C 203.002 234.485,203.547 234.800,203.787 234.800 C 204.027 234.800,204.483 235.160,204.800 235.600 C 205.117 236.040,205.609 236.400,205.892 236.400 C 206.175 236.400,206.972 236.940,207.663 237.600 C 208.354 238.260,209.079 238.800,209.276 238.800 C 209.473 238.800,210.020 239.160,210.492 239.600 C 210.964 240.040,211.587 240.400,211.875 240.400 C 212.164 240.400,212.400 240.580,212.400 240.800 C 212.400 241.020,212.678 241.200,213.017 241.200 C 213.356 241.200,214.020 241.560,214.492 242.000 C 214.964 242.440,215.587 242.800,215.875 242.800 C 216.164 242.800,216.400 242.980,216.400 243.200 C 216.400 243.420,216.625 243.600,216.900 243.601 C 217.175 243.601,218.030 244.141,218.800 244.800 C 219.570 245.459,220.385 245.999,220.612 245.999 C 220.838 246.000,221.283 246.360,221.600 246.800 C 221.917 247.240,222.409 247.600,222.692 247.600 C 222.975 247.600,223.772 248.140,224.463 248.800 C 225.154 249.460,225.962 250.000,226.259 250.000 C 226.557 250.000,226.800 250.150,226.800 250.332 C 226.800 250.515,227.295 250.919,227.900 251.230 C 228.505 251.540,229.291 252.111,229.647 252.497 C 230.003 252.884,230.588 253.200,230.947 253.200 C 231.306 253.200,231.600 253.350,231.600 253.532 C 231.600 253.715,232.095 254.120,232.700 254.432 C 233.305 254.745,234.149 255.315,234.575 255.700 C 235.002 256.085,235.547 256.400,235.787 256.400 C 236.027 256.400,236.483 256.760,236.800 257.200 C 237.117 257.640,237.697 258.000,238.088 258.000 C 238.480 258.000,238.800 258.180,238.800 258.400 C 238.800 258.620,239.072 258.800,239.404 258.800 C 239.736 258.800,240.572 259.340,241.263 260.000 C 241.954 260.660,242.762 261.200,243.059 261.200 C 243.357 261.200,243.600 261.380,243.600 261.600 C 243.600 261.820,243.960 262.000,244.400 262.000 C 244.840 262.000,245.200 262.153,245.200 262.340 C 245.200 262.527,246.415 263.266,247.900 263.982 C 249.385 264.698,250.913 265.445,251.295 265.642 C 251.677 265.839,252.262 266.000,252.595 266.000 C 252.928 266.000,253.200 266.180,253.200 266.400 C 253.200 266.620,253.549 266.800,253.976 266.800 C 254.403 266.800,254.864 266.980,255.000 267.200 C 255.136 267.420,255.676 267.600,256.200 267.600 C 256.724 267.600,257.264 267.780,257.400 268.000 C 257.536 268.220,258.076 268.400,258.600 268.400 C 259.124 268.400,259.664 268.580,259.800 268.800 C 259.936 269.020,260.656 269.200,261.400 269.200 C 262.144 269.200,262.864 269.380,263.000 269.600 C 263.136 269.820,264.036 270.000,265.000 270.000 C 265.964 270.000,266.864 270.180,267.000 270.400 C 267.155 270.651,271.263 270.800,278.000 270.800 C 284.737 270.800,288.845 270.651,289.000 270.400 C 289.136 270.180,290.036 270.000,291.000 270.000 C 291.964 270.000,292.864 269.820,293.000 269.600 C 293.136 269.380,293.777 269.200,294.424 269.200 C 295.071 269.200,295.600 269.020,295.600 268.800 C 295.600 268.580,296.129 268.400,296.776 268.400 C 297.423 268.400,298.064 268.220,298.200 268.000 C 298.336 267.780,298.966 267.600,299.600 267.600 C 300.234 267.600,300.864 267.420,301.000 267.200 C 301.136 266.980,301.597 266.800,302.024 266.800 C 302.451 266.800,302.800 266.620,302.800 266.400 C 302.800 266.180,303.160 266.000,303.600 266.000 C 304.040 266.000,304.400 265.820,304.400 265.600 C 304.400 265.380,304.839 265.200,305.376 265.200 C 305.913 265.200,306.464 265.020,306.600 264.800 C 306.736 264.580,307.197 264.400,307.624 264.400 C 308.051 264.400,308.400 264.220,308.400 264.000 C 308.400 263.780,308.636 263.600,308.925 263.600 C 309.213 263.600,309.836 263.240,310.308 262.800 C 310.780 262.360,311.404 262.000,311.695 262.000 C 311.986 262.000,312.483 261.640,312.800 261.200 C 313.117 260.760,313.657 260.400,314.000 260.400 C 314.343 260.400,314.883 260.040,315.200 259.600 C 315.517 259.160,316.057 258.800,316.400 258.800 C 316.743 258.800,317.283 258.440,317.600 258.000 C 317.917 257.560,318.400 257.200,318.672 257.200 C 319.276 257.200,328.631 247.956,330.006 246.000 C 330.548 245.230,331.488 244.078,332.096 243.441 C 332.703 242.803,333.200 242.078,333.200 241.829 C 333.200 241.580,333.560 241.117,334.000 240.800 C 334.440 240.483,334.800 239.903,334.800 239.512 C 334.800 239.120,334.953 238.800,335.140 238.800 C 335.327 238.800,336.091 237.585,336.838 236.100 C 337.585 234.615,338.332 233.340,338.498 233.267 C 338.664 233.193,338.800 232.608,338.800 231.967 C 338.800 231.325,338.980 230.800,339.200 230.800 C 339.420 230.800,339.600 230.440,339.600 230.000 C 339.600 229.560,339.780 229.200,340.000 229.200 C 340.220 229.200,340.400 228.660,340.400 228.000 C 340.400 227.340,340.580 226.800,340.800 226.800 C 341.020 226.800,341.200 226.260,341.200 225.600 C 341.200 224.940,341.380 224.400,341.600 224.400 C 341.820 224.400,342.000 223.781,342.000 223.024 C 342.000 222.267,342.180 221.536,342.400 221.400 C 342.620 221.264,342.800 220.364,342.800 219.400 C 342.800 218.436,342.980 217.536,343.200 217.400 C 343.420 217.264,343.600 215.914,343.600 214.400 C 343.600 212.886,343.780 211.536,344.000 211.400 C 344.503 211.089,344.543 197.736,344.042 197.426 C 343.437 197.052,343.296 198.036,343.226 203.140 C 343.188 205.845,342.999 208.476,342.805 208.987 C 342.611 209.497,342.351 210.879,342.228 212.057 C 341.895 215.245,341.739 216.092,341.274 217.257 C 341.042 217.838,340.945 218.669,341.058 219.102 C 341.187 219.594,341.027 219.981,340.632 220.132 C 340.192 220.301,340.000 220.143,340.000 219.611 C 340.000 219.191,339.820 218.736,339.600 218.600 C 339.380 218.464,339.200 217.813,339.200 217.153 C 339.200 216.455,339.033 216.056,338.800 216.200 C 338.580 216.336,338.400 217.337,338.400 218.424 C 338.400 219.511,338.232 220.400,338.027 220.400 C 337.586 220.400,337.124 219.114,337.286 218.341 C 337.375 217.917,336.432 217.776,332.907 217.687 C 328.914 217.586,328.367 217.486,327.993 216.787 C 327.538 215.938,325.060 215.655,324.600 216.400 C 324.196 217.054,322.938 216.856,322.349 216.046 C 321.480 214.852,318.950 214.650,318.205 215.715 C 317.872 216.190,317.600 216.345,317.600 216.060 C 317.600 215.242,316.521 214.379,315.830 214.644 C 315.483 214.777,315.200 215.226,315.200 215.643 C 315.200 216.059,315.024 216.400,314.810 216.400 C 314.581 216.400,314.532 215.864,314.693 215.100 C 315.539 211.061,314.837 195.304,313.800 195.085 C 313.244 194.967,313.045 197.605,313.571 198.131 C 314.130 198.690,314.157 210.256,313.600 210.600 C 313.380 210.736,313.200 211.557,313.200 212.424 C 313.200 213.291,313.020 214.000,312.800 214.000 C 312.580 214.000,312.400 214.529,312.400 215.176 C 312.400 215.823,312.220 216.464,312.000 216.600 C 311.780 216.736,311.600 217.287,311.600 217.824 C 311.600 218.361,311.420 218.800,311.200 218.800 C 310.980 218.800,310.800 219.160,310.800 219.600 C 310.800 220.040,310.620 220.400,310.400 220.400 C 310.180 220.400,310.000 220.636,310.000 220.925 C 310.000 221.213,309.640 221.836,309.200 222.308 C 308.760 222.780,308.400 223.404,308.400 223.695 C 308.400 223.986,308.040 224.483,307.600 224.800 C 307.160 225.117,306.800 225.609,306.800 225.894 C 306.800 226.569,300.169 233.200,299.494 233.200 C 299.209 233.200,298.717 233.560,298.400 234.000 C 298.083 234.440,297.543 234.800,297.200 234.800 C 296.857 234.800,296.317 235.160,296.000 235.600 C 295.683 236.040,295.103 236.400,294.712 236.400 C 294.320 236.400,294.000 236.580,294.000 236.800 C 294.000 237.020,293.640 237.200,293.200 237.200 C 292.760 237.200,292.400 237.380,292.400 237.600 C 292.400 237.820,291.860 238.000,291.200 238.000 C 290.540 238.000,290.000 238.180,290.000 238.400 C 290.000 238.620,289.561 238.800,289.024 238.800 C 288.487 238.800,287.936 238.980,287.800 239.200 C 287.664 239.420,286.764 239.600,285.800 239.600 C 284.836 239.600,283.936 239.780,283.800 240.000 C 283.654 240.236,281.270 240.400,278.000 240.400 C 274.730 240.400,272.346 240.236,272.200 240.000 C 272.064 239.780,271.153 239.600,270.176 239.600 C 269.199 239.600,268.400 239.420,268.400 239.200 C 268.400 238.980,267.860 238.800,267.200 238.800 C 266.540 238.800,266.000 238.620,266.000 238.400 C 266.000 238.180,265.651 238.000,265.224 238.000 C 264.797 238.000,264.336 237.820,264.200 237.600 C 264.064 237.380,263.513 237.200,262.976 237.200 C 262.439 237.200,262.000 237.020,262.000 236.800 C 262.000 236.580,261.680 236.400,261.288 236.400 C 260.897 236.400,260.317 236.040,260.000 235.600 C 259.683 235.160,259.143 234.800,258.800 234.800 C 258.457 234.800,257.917 234.440,257.600 234.000 C 257.283 233.560,256.743 233.200,256.400 233.200 C 256.057 233.200,255.517 232.840,255.200 232.400 C 254.883 231.960,254.391 231.600,254.108 231.600 C 253.825 231.600,253.028 231.060,252.337 230.400 C 251.646 229.740,250.921 229.200,250.724 229.200 C 250.527 229.200,249.980 228.840,249.508 228.400 C 249.036 227.960,248.413 227.600,248.125 227.600 C 247.836 227.600,247.600 227.450,247.600 227.268 C 247.600 227.085,247.105 226.680,246.500 226.368 C 245.895 226.055,245.051 225.485,244.625 225.100 C 244.198 224.715,243.613 224.400,243.325 224.400 C 243.036 224.400,242.800 224.250,242.800 224.068 C 242.800 223.885,242.305 223.481,241.700 223.170 C 241.095 222.860,240.330 222.333,240.000 222.000 C 239.670 221.667,238.905 221.140,238.300 220.830 C 237.695 220.519,237.200 220.115,237.200 219.932 C 237.200 219.750,236.906 219.600,236.547 219.600 C 236.188 219.600,235.603 219.284,235.247 218.897 C 234.891 218.511,234.105 217.940,233.500 217.630 C 232.895 217.319,232.400 216.915,232.400 216.732 C 232.400 216.550,232.080 216.400,231.688 216.400 C 231.297 216.400,230.717 216.040,230.400 215.600 C 230.083 215.160,229.543 214.800,229.200 214.800 C 228.857 214.800,228.317 214.440,228.000 214.000 C 227.683 213.560,227.175 213.200,226.872 213.200 C 226.569 213.200,225.817 212.660,225.200 212.000 C 224.583 211.340,223.831 210.800,223.528 210.800 C 223.225 210.800,222.717 210.440,222.400 210.000 C 222.083 209.560,221.503 209.200,221.112 209.200 C 220.720 209.200,220.400 209.020,220.400 208.800 C 220.400 208.580,220.080 208.400,219.688 208.400 C 219.297 208.400,218.717 208.040,218.400 207.600 C 218.083 207.160,217.543 206.800,217.200 206.800 C 216.857 206.800,216.317 206.440,216.000 206.000 C 215.683 205.560,215.103 205.200,214.712 205.200 C 214.267 205.200,214.000 204.900,214.000 204.400 C 214.000 203.900,214.267 203.600,214.712 203.600 C 215.103 203.600,215.683 203.240,216.000 202.800 C 216.317 202.360,216.897 202.000,217.288 202.000 C 217.680 202.000,218.000 201.820,218.000 201.600 C 218.000 201.380,218.243 201.200,218.541 201.200 C 218.838 201.200,219.646 200.660,220.337 200.000 C 221.028 199.340,221.864 198.800,222.196 198.800 C 222.528 198.800,222.800 198.620,222.800 198.400 C 222.800 198.180,223.043 198.000,223.341 198.000 C 223.638 198.000,224.406 197.505,225.048 196.900 C 225.689 196.295,226.706 195.545,227.307 195.232 C 227.908 194.920,228.400 194.515,228.400 194.332 C 228.400 194.150,228.636 194.000,228.925 194.000 C 229.213 194.000,229.836 193.640,230.308 193.200 C 230.780 192.760,231.367 192.400,231.612 192.400 C 232.075 192.400,233.200 191.428,233.200 191.029 C 233.200 190.781,233.003 190.790,231.842 191.087 M56.558 194.624 C 56.417 195.188,56.473 199.733,56.683 204.724 L 57.064 213.800 57.132 203.700 C 57.198 193.934,57.104 192.450,56.558 194.624 M213.783 211.572 C 213.909 211.777,213.846 212.048,213.643 212.174 C 213.121 212.496,211.958 211.991,212.226 211.558 C 212.516 211.089,213.490 211.098,213.783 211.572 M222.000 212.159 C 222.000 212.230,221.550 212.203,221.000 212.098 C 220.229 211.951,219.993 212.078,219.968 212.653 C 219.950 213.098,219.853 213.192,219.731 212.887 C 219.374 211.999,220.378 211.160,221.242 211.622 C 221.659 211.846,222.000 212.087,222.000 212.159 " stroke="none" fill="#fb7c76" fill-rule="evenodd"></path></g></svg>